
<svg xmlns="http://www.w3.org/2000/svg" version="1.1" xmlns:xlink="http://www.w3.org/1999/xlink" preserveAspectRatio="none" x="0px" y="0px" width="400px" height="400px" viewBox="0 0 400 400">
<defs>
<linearGradient id="Gradient_1" gradientUnits="userSpaceOnUse" x1="200" y1="7.625" x2="200" y2="387.375" spreadMethod="pad">
<stop  offset="0%" stop-color="#CCCCCC" stop-opacity="0.5019607843137255"/>

<stop  offset="93.33333333333333%" stop-color="#FFFFFF" stop-opacity="0"/>
</linearGradient>

<g id="Layer0_0_FILL">
<path fill="url(#Gradient_1)" stroke="none" d="
M 356.75 75
Q 349.5 66.5 341.75 58.25 327.5 44.25 312.5 33.75 267.25 2.75 210.75 0.25 205.25 0 200.25 0 137 0 88.25 33.75
L 88.5 33.75
Q 72.75 44.25 58.75 58.25 0 117.25 0 199.75 0 282.25 58.75 341 66.75 349.25 75.5 356.25 128.75 400 200.25 400 205.25 400 210.75 399.75 286.5 396 341.75 341 400 282.25 400 199.75 400 128.25 356.75 75
M 335.75 64.25
Q 343.5 72 350.5 80.25 391.75 131.25 391.75 199.75 391.75 278.75 335.75 335.25 283 387.75 210.5 391.5 205 391.75 200.25 391.75 131.75 391.75 80.75 349.75 72.5 343 64.75 335.25 8.25 278.75 8.25 199.75 8.25 120.75 64.75 64.25 78 50.75 93 40.75 139.75 8.25 200.25 8.25 205 8.25 210.5 8.5 264.5 11 307.75 40.75 322.25 50.75 335.75 64
L 335.75 64.25
M 258.25 68
Q 261.75 66.25 264.25 63 265.5 60.25 264.25 56.75 264 56.25 263.75 55.75 261.25 51 252.75 51.25 82 94.5 61.25 253.5 59.5 261.5 68 262.25
L 188.75 262.25
Q 189.25 262.25 189.75 262.25 194.75 262.25 198.5 261 220.25 254.75 229.5 223.5 229.75 222.5 230.25 221.25 231.25 216 230.5 214.5 228 210.5 220.5 210
L 134 210
Q 154.25 112.25 258.25 68
M 339 146.5
Q 340.5 138.5 332.25 137.75
L 211.25 137.75
Q 211 137.75 210.5 137.75 205.5 137.75 201.75 139 180 145.25 170.75 176.5 170.25 177.5 170 178.75 168.75 184 169.75 185.5 172.25 189.5 179.75 190
L 266.25 190
Q 245.75 287.75 142 332 138.25 333.75 136 336.75 134.75 339.75 136 343.25 136.25 343.75 136.25 344.25 139 349 147.5 348.75 318.25 305.5 339 146.5 Z"/>
</g>
</defs>

<g transform="matrix( 1, 0, 0, 1, 0,0) ">
<use xlink:href="#Layer0_0_FILL"/>
</g>
</svg>
