
<svg xmlns="http://www.w3.org/2000/svg" version="1.1" xmlns:xlink="http://www.w3.org/1999/xlink" preserveAspectRatio="none" x="0px" y="0px" width="570px" height="60px" viewBox="0 0 570 60">
<defs/>

<g id="___1">
<g transform="matrix( 1, 0, 0, 1, 0,0) ">
<g>
<g>
<path fill="#FFFFFF" stroke="none" d="
M 7.65 17.6
Q 6.95 16.9 5.85 16.9 4.5 16.9 3.9 17.6 3.25 18.4 3.25 20
L 3.25 39.45
Q 3.25 41.1 3.9 41.9 4.75 42.55 6.4 42.55
L 18.55 42.55
Q 19.75 42.55 20.6 42 21.15 41.5 21.15 40.5 21.15 39.75 20.6 39.15 19.75 38.35 18.55 38.35
L 8.3 38.35 8.3 20
Q 8.3 18.4 7.65 17.6
M 29.1 17.6
Q 28.25 16.9 27.15 16.9 26.05 16.9 25.25 17.6 24.7 18.4 24.7 20
L 24.7 40
Q 24.7 41.5 25.25 42.45 26.05 43.15 27.15 43.15 28.25 43.15 29.1 42.45 29.65 41.5 29.65 40
L 29.65 20
Q 29.65 18.4 29.1 17.6
M 47.1 21.3
Q 48.05 21.95 48.75 23.6 49.3 24.55 49.8 25.1 50.25 25.25 50.95 25.25 52 25.25 52.85 24.7 53.4 24 53.4 22.9 53.4 21.95 52.85 20.85 52.3 20 51.2 18.95 50.1 17.95 48.45 17.45 46.85 16.9 44.35 16.9 41.5 16.9 39.35 17.6 37.3 18.55 36 20.3 34.95 21.85 34.95 23.85 34.95 26.15 36 27.7 37.15 29.05 38.9 30 40.8 30.7 43.55 31.55
L 46.85 32.2
Q 47.9 32.75 48.6 33.45 49.3 34.35 49.3 35.5 49.3 37.1 48.05 38.2 46.55 39.3 44.35 39.3 42.6 39.3 41.65 38.75 40.8 38.2 40.25 37.55 39.7 36.55 39.2 35.5 38.75 34.35 38.2 33.85 37.55 33.3 36.7 33.3 35.9 33.3 35.1 33.95 34.55 34.5 34.55 35.5 34.55 37.25 35.65 38.9 36.6 40.5 38.35 41.65 40.8 43.15 44.35 43.15 47.55 43.15 49.8 42 52 40.95 53.4 39.15 54.45 37.25 54.45 34.95 54.45 33.15 53.65 31.8 53.1 30.4 51.85 29.5 50.8 28.8 49 27.95 47.1 27.45 45.2 27.15
L 42.6 26.3 41.4 25.65
Q 40.55 25.25 40 24.7 39.7 24.1 39.7 23.45 39.7 22.2 40.8 21.4 42.05 20.6 44.1 20.6 46.25 20.6 47.1 21.3
M 63.9 20
Q 63.9 18.4 63.25 17.6 62.4 16.9 61.2 16.9 60.05 16.9 59.4 17.6 58.85 18.4 58.85 20
L 58.85 40
Q 58.85 41.5 59.4 42.45 60.05 43.15 61.2 43.15 62.4 43.15 63.25 42.45 63.9 41.5 63.9 40
L 63.9 31.25 74.7 31.25 74.7 40
Q 74.7 41.5 75.55 42.45 76.05 43.15 77.45 43.15 78.5 43.15 79.2 42.45 79.7 41.5 79.7 40
L 79.7 20
Q 79.7 18.4 79.2 17.6 78.5 16.9 77.45 16.9 76.05 16.9 75.55 17.6 74.7 18.4 74.7 20
L 74.7 27.15 63.9 27.15 63.9 20
M 106.35 20
Q 106.35 18.4 105.65 17.6 105 16.9 103.9 16.9 102.85 16.9 102 17.6 101.35 18.4 101.35 20
L 101.35 32.6
Q 101.35 35.9 100.2 37.25 99 38.9 96 38.9 93.8 38.9 92.45 38.2 91.35 37.25 90.8 36 90.25 34.5 90.25 32.3
L 90.25 20
Q 90.25 18.4 89.7 17.6 89.2 16.9 87.8 16.9 86.7 16.9 86.15 17.6 85.2 18.4 85.2 20
L 85.2 32.2
Q 85.2 34.95 85.85 37.1 86.7 39.15 87.8 40.5 89.2 41.65 91.35 42.45 93.3 43.15 96.4 43.15 98.75 43.15 100.65 42.45 102.25 41.9 103.9 40.5 105.3 39.15 105.8 37.1 106.35 35.05 106.35 32.2
L 106.35 20
M 133 20
Q 133 18.4 132.3 17.6 131.75 16.9 130.4 16.9 129.35 16.9 128.65 17.6 128.1 18.4 128.1 20
L 128.1 27.15 117.05 27.15 117.05 20
Q 117.05 18.4 116.5 17.6 115.55 16.9 114.45 16.9 113.35 16.9 112.65 17.6 111.8 18.4 111.8 20
L 111.8 40
Q 111.8 41.5 112.65 42.45 113.35 43.15 114.45 43.15 115.55 43.15 116.5 42.45 117.05 41.5 117.05 40
L 117.05 31.25 128.1 31.25 128.1 40
Q 128.1 41.5 128.65 42.45 129.35 43.15 130.4 43.15 131.75 43.15 132.3 42.45 133 41.5 133 40
L 133 20
M 152 19.65
L 151.05 18.1
Q 150.65 17.6 149.95 17.3 149.4 16.9 148.15 16.9 147.25 16.9 146.55 17.3 145.7 17.6 145.45 18.4
L 144.5 20 136.85 39.75 136.7 40.8
Q 136.7 41.65 137.4 42.45 138.35 43.15 139.15 43.15 140.25 43.15 140.65 42.45 141.2 41.65 141.85 39.85
L 143 36.55 153.25 36.55 155 41.1 155.55 42.15
Q 155.95 42.55 156.5 43 156.9 43.15 157.5 43.15 158.55 43.15 159.25 42.45 159.9 41.5 159.9 40.8 159.9 39.85 159.25 38.05
L 152 19.65
M 152 32.75
L 144.5 32.75 148.15 22.2 152 32.75
M 183.95 17.6
Q 183.45 16.9 182.3 16.9 181.25 16.9 180.55 17.6 180 18.4 180 19.8
L 180 34.95 168.65 17.6 167.8 17.05
Q 167.3 16.9 166.75 16.9 165.75 16.9 165.1 17.3 164.3 17.85 164 18.55 163.65 19.25 163.65 20.6
L 163.65 40.25
Q 163.65 41.5 164.3 42.45 165.1 43.15 166.2 43.15 167.05 43.15 167.8 42.45 168.5 41.5 168.5 40.25
L 168.5 25.25 178.75 41.1 179.6 42.15
Q 180.1 42.55 180.7 43 181.25 43.15 182.05 43.15 184.8 43.15 184.8 39.75
L 184.8 19.8
Q 184.8 18.4 183.95 17.6
M 219.7 37.8
Q 218.65 37.8 217.8 38.6 217.15 39.3 217.15 40.4 217.15 41.65 217.8 42.45 218.8 43.15 219.7 43.15 220.85 43.15 221.55 42.45 222.45 41.65 222.45 40.4 222.45 39.3 221.55 38.6 220.85 37.8 219.7 37.8
M 209.9 19.25
Q 208.55 18.1 206.75 17.6 204.7 16.9 202.25 16.9 199.15 16.9 196.8 17.85 194.2 18.65 192.55 20.3 190.95 21.95 189.95 24.55 189.15 26.85 189.15 30 189.15 32.9 189.95 35.5 190.95 37.8 192.55 39.45 194.2 41.35 196.5 42.15 199 43.15 201.95 43.15 204.45 43.15 206.65 42.45 208.55 42 211 40.5 213.2 39.3 213.2 35.5
L 213.2 32.2
Q 213.2 31.1 212.65 30.4 212.2 29.6 211.3 29.5 210.75 29.35 209.65 29.35
L 203.9 29.35
Q 202.95 29.35 202.4 29.9 201.7 30.4 201.7 31.25 201.7 32.2 202.4 32.75 203.1 33.15 204.45 33.15
L 208.4 33.15 208.4 35.9
Q 208.25 37.8 206.05 38.35 203.9 39.15 201.95 39.15 198.45 39.15 196.4 36.7 194.2 34.35 194.2 29.9 194.2 27.85 194.75 26.05 195.45 24.4 196.4 23.35 197.35 21.95 198.7 21.4 200.05 20.85 201.85 20.85 203.5 20.85 204.7 21.3 205.7 21.85 206.35 22.75
L 208 24.7
Q 208.25 25.25 208.95 25.65 209.4 25.8 209.9 25.8 211 25.8 211.7 25.1 212.2 24.55 212.2 23.6 212.2 22.75 211.7 21.4 211 20.3 209.9 19.25
M 251.95 20.6
Q 251.8 17.3 248.15 17.3
L 247.05 17.3
Q 244.6 17.3 244.05 19.8
L 239.8 34.5 236 19.8
Q 235.05 17.45 232.7 17.3
L 232.15 17.3
Q 227.9 16.9 227.7 20.3
L 227.7 40.25
Q 227.7 41.65 228.5 42.45 229.05 43.15 230.1 43.15 231.1 43.15 231.75 42.45 232.6 41.65 232.6 40.25
L 232.6 22.75 236.95 40.25 237.5 41.65
Q 237.75 42.45 238.3 42.55 238.85 43.15 239.8 43.15 241.05 43.15 241.85 42.45 242.4 41.9 242.7 41.1
L 247.35 22.75 247.35 40.25
Q 247.35 41.65 248 42.45 248.55 43.15 249.7 43.15 250.75 43.15 251.3 42.45 251.95 41.65 251.95 40.25
L 251.95 20.6
M 276 19.25
Q 276 18.4 275.5 17.85 274.8 17.3 273.7 17.3
L 260.15 17.3
Q 259.35 17.3 258.55 17.6 257.85 17.95 257.45 18.55 257.2 19.25 257.2 20.3
L 257.2 39.45
Q 257.2 41.1 257.85 41.9 258.8 42.55 260.15 42.55
L 274.1 42.55
Q 275.35 42.55 275.85 42 276.4 41.5 276.4 40.5 276.4 39.75 275.85 39.15 275.35 38.6 274.1 38.6
L 262.2 38.6 262.2 31.25 272.75 31.25
Q 273.8 31.25 274.65 30.7 275.2 30.15 275.2 29.35 275.2 28.5 274.65 27.95 273.8 27.45 272.75 27.45
L 262.2 27.45 262.2 21.3 273.7 21.3
Q 274.8 21.3 275.5 20.7 276 20.15 276 19.25
M 379.3 44.45
Q 378.3 43.35 376.95 43.35 375.5 43.35 374.65 44.45 373.55 45.4 373.55 46.75 373.55 48.25 374.65 49.1 375.5 50.15 376.95 50.15 378.3 50.15 379.3 49.1 380.25 48.25 380.25 46.75 380.25 45.4 379.3 44.45
M 382.7 5.75
Q 383.7 4.8 383.7 3.25 383.7 2.05 382.7 1.05 381.65 0 380.25 0 378.9 0 377.95 1.05
L 364.55 14.5
Q 363.75 15.3 363.75 16.7
L 363.75 33.35 360.15 33.35
Q 358.8 33.35 358 34.45 356.9 35.3 356.9 36.8 356.9 38.15 358 39.1 358.8 40.05 360.15 40.05
L 363.75 40.05 363.75 56.75
Q 363.75 58.1 364.55 59.2 365.65 60 367 60 368.35 60 369.35 59.2 370.25 58.1 370.25 56.75
L 370.25 40.05 383.7 40.05 383.7 56.75
Q 383.7 58.1 384.6 59.2 385.6 60 386.95 60 388.3 60 389.25 59.2 390.2 58.1 390.2 56.75
L 390.2 30.2
Q 390.6 22.15 386.4 17.9 382.7 13.8 374.9 13.4
L 382.7 5.75
M 373.55 20.1
Q 373.85 20.1 374 20.1 379.15 20.1 381.65 22.55 383.8 25.2 383.7 29.95
L 383.7 33.35 370.25 33.35 370.25 20.1 373.55 20.1
M 379.3 24.35
Q 378.3 23.5 376.95 23.5 375.5 23.5 374.65 24.35 373.55 25.4 373.55 26.8 373.55 28.15 374.65 29.15 375.5 30.05 376.95 30.05 378.3 30.05 379.3 29.15 380.25 28.15 380.25 26.8 380.25 25.4 379.3 24.35
M 420.1 40.2
Q 420.65 32 416.45 27.9 412.35 23.65 404.15 23.5
L 404.05 23.5
Q 403.9 23.5 403.6 23.5
L 396.9 23.5
Q 395.55 23.5 394.6 24.35 393.65 25.4 393.65 26.8
L 393.65 56.75
Q 393.65 58.1 394.6 59.2 395.55 60 396.9 60 398.25 60 399.4 59.2 400.15 58.1 400.15 56.75
L 400.15 30.05 403.6 30.05
Q 403.9 30.05 404.05 30.05 409.05 30.2 411.7 32.55 413.75 35.15 413.6 39.9
L 413.6 50.15
Q 413.6 57.95 420.55 59.55 421.8 60 423.55 60 424.75 60.15 425.9 59.2 426.8 58.2 426.95 56.85 426.95 55.5 426.05 54.55 425.2 53.45 423.85 53.45 422.85 53.45 422.15 53.2 420.1 52.5 420.1 50.15
L 420.1 40.2
M 419.3 14.5
Q 418.2 13.4 416.85 13.4
L 396.9 13.4
Q 395.55 13.4 394.6 14.5 393.65 15.3 393.65 16.7 393.65 18.2 394.6 19.15 395.55 20.1 396.9 20.1
L 416.85 20.1
Q 418.2 20.1 419.3 19.15 420.1 18.2 420.1 16.7 420.1 15.3 419.3 14.5
M 409.2 9.05
Q 410.3 8.2 410.3 6.85 410.3 5.3 409.2 4.35 408.35 3.25 407 3.25 405.55 3.25 404.55 4.35 403.6 5.3 403.6 6.85 403.6 8.2 404.55 9.05 405.55 10.15 407 10.15 408.35 10.15 409.2 9.05
M 436.8 6.85
Q 436.8 5.3 436 4.35 434.9 3.25 433.55 3.25 432.15 3.25 431.35 4.35 430.2 5.3 430.2 6.85 430.2 8.2 431.35 9.05 432.15 10.15 433.55 10.15 434.9 10.15 436 9.05 436.8 8.2 436.8 6.85
M 492.65 54.4
Q 491.6 53.45 490.2 53.45
L 446.9 53.45
Q 446.75 53.45 446.35 53.45 445.25 53.45 444.15 53.35 440.9 52.75 439 50.85 436.65 48.4 436.8 43.6
L 436.8 23.5
Q 436.8 14.95 428.75 13.55 427.95 13.4 427.1 13.4 425.75 13.4 424.65 14.35 423.7 15.15 423.7 16.55 423.55 17.9 424.5 19.05 425.45 19.95 426.8 20.1 427.25 20.1 427.65 20.1 430.35 20.65 430.2 23.5
L 430.2 43.2
Q 430 51.5 434.05 55.5 437.65 59.35 444.15 59.85 445.25 60 446.35 60 446.75 60 446.9 60
L 490.2 60
Q 491.6 60 492.65 59.2 493.5 58.1 493.5 56.75 493.5 55.4 492.65 54.4
M 525.85 41.05
Q 524.9 40.05 523.55 40.05 522.15 40.05 521.05 41.05 520.25 42.1 520.25 43.35 520.25 44.7 521.05 45.8 522.15 46.75 523.55 46.75 524.9 46.75 525.85 45.8 526.8 44.7 526.8 43.35 526.8 42.1 525.85 41.05
M 489.8 8.5
Q 490.3 7.4 490.2 6.15 489.95 5.05 488.95 4.2 488.15 3.25 486.9 3.25
L 446.9 3.25
Q 445.55 3.25 444.45 4.35 444.3 4.5 444.15 4.65 443.65 5.6 443.65 6.85 443.65 7.8 444.15 8.8 444.3 8.9 444.45 9.05 445.55 10.15 446.9 10.15
L 480.35 10.15
Q 479.55 10.95 478.6 11.9 474.35 16.3 468.35 16.7 467.8 16.7 467.4 16.85 467 16.7 466.55 16.7 461.25 16.7 457.15 13.65 456.15 13 454.8 13.1 453.45 13.4 452.5 14.5 451.85 15.45 452 17 452.2 18.35 453.35 19.15 454.05 19.7 454.8 20.1
L 446.9 20.1
Q 445.55 20.1 444.45 21.1 444.3 21.2 444.15 21.3 443.65 22.3 443.65 23.5
L 443.65 46.75
Q 443.65 47.85 444.15 48.8 444.3 48.95 444.45 49.1 445.55 50.15 446.9 50.15 448.25 50.15 449.25 49.1 450.15 48.25 450.15 46.75
L 450.15 26.8 463.6 26.8 463.6 30.05 456.85 30.05
Q 455.5 30.05 454.55 31.05 453.6 32 453.6 33.35 453.6 34.9 454.55 35.8 455.5 36.8 456.85 36.8
L 463.6 36.8 463.6 40.05 456.85 40.05
Q 455.5 40.05 454.55 41.05 453.6 42.1 453.6 43.35 453.6 44.7 454.55 45.8 455.5 46.75 456.85 46.75
L 463.6 46.75
Q 463.6 48.25 464.5 49.1 465.5 50.15 466.85 50.15 468.35 50.15 469.15 49.1 470.25 48.25 470.25 46.75
L 476.8 46.75
Q 478.15 46.75 479.3 45.8 480.1 44.7 480.1 43.35 480.1 42.1 479.3 41.05 478.15 40.05 476.8 40.05
L 470.25 40.05 470.25 36.8 476.8 36.8
Q 478.15 36.8 479.3 35.8 480.1 34.9 480.1 33.35 480.1 32 479.3 31.05 478.15 30.05 476.8 30.05
L 470.25 30.05 470.25 26.8 483.65 26.8 483.65 46.75
Q 483.65 48.25 484.45 49.1 485.55 50.15 486.9 50.15 488.25 50.15 489.25 49.1 490.2 48.25 490.2 46.75
L 490.2 23.5
Q 490.2 22.15 489.25 21.1 488.25 20.1 486.9 20.1
L 479.15 19.95
Q 481.35 18.6 483.5 16.55 487.05 13 489.8 8.5
M 525.85 14.35
Q 524.9 13.4 523.55 13.4
L 500.3 13.4
Q 498.8 13.4 497.85 14.5 496.75 15.3 496.75 16.7 496.75 18.2 497.85 19.15 498.8 20.1 500.3 20.1
L 516.15 20.1 511.25 25.85
Q 511.1 25.95 510.8 26.1
L 497.75 41.3
Q 496.75 42.25 496.9 43.75 496.9 45.15 498 45.9 499.1 46.9 500.45 46.75 501.85 46.75 502.6 45.65
L 510.1 37.05 510.1 56.75
Q 510.1 58.1 511.25 59.2 512.1 60 513.55 60 514.9 60 515.9 59.2 516.85 58.1 516.85 56.75
L 516.85 29.35 526 19.05
Q 526.95 17.9 526.8 16.55 526.8 15.15 525.85 14.35
M 515.9 4.35
Q 514.9 3.25 513.55 3.25 512.1 3.25 511.25 4.35 510.1 5.3 510.1 6.85 510.1 8.2 511.25 9.05 512.1 10.15 513.55 10.15 514.9 10.15 515.9 9.05 516.85 8.2 516.85 6.85 516.85 5.3 515.9 4.35
M 541.15 4.35
Q 540.15 5.3 540.15 6.85
L 540.15 26.8 530.2 26.8
Q 528.7 26.8 527.9 27.75 526.8 28.7 526.8 30.05 526.8 31.45 527.9 32.4 528.7 33.35 530.2 33.35
L 540.15 33.35 540.15 53.45 523.55 53.45
Q 522.15 53.45 521.2 54.4 520.25 55.4 520.25 56.75 520.25 58.1 521.2 59.2 522.15 60 523.55 60
L 563.55 60
Q 564.9 60 565.9 59.2 566.8 58.1 566.8 56.75 566.8 55.4 565.9 54.4 564.9 53.45 563.55 53.45
L 546.9 53.45 546.9 33.35 556.7 33.35
Q 558.2 33.35 559.2 32.4 560.25 31.45 560.25 30.05 560.25 28.7 559.2 27.75 558.2 26.8 556.7 26.8
L 546.9 26.8 546.9 6.85
Q 546.9 5.3 545.8 4.35 544.95 3.25 543.6 3.25 542.1 3.25 541.15 4.35
M 346.2 30.05
Q 346.2 17.95 337.65 9.35 329.05 0.75 316.95 0.75 304.85 0.75 296.25 9.35 287.7 17.95 287.7 30.05 287.7 42.15 296.25 50.7 304.85 59.3 316.95 59.3 329.05 59.3 337.65 50.7 346.2 42.15 346.2 30.05
M 335.65 20.65
Q 336.95 20.8 336.65 21.95 333.7 44.75 309 51 307.9 51 307.45 50.55 307.45 50.35 307.35 50.35 307.05 49.7 307.35 49.45 307.6 48.95 308.25 48.7 323.1 42.35 326.2 28.1
L 313.7 28.1
Q 312.65 28.1 312.25 27.45 312.1 27.45 312.25 26.55 312.25 26.4 312.25 26.15 313.7 21.8 316.75 20.8 317.45 20.65 318.05 20.65
L 335.65 20.65
M 325.8 8.65
Q 325.8 8.95 325.95 8.95 326.1 9.5 325.95 9.85 325.55 10.5 324.95 10.65 310.05 17 307.05 30.95
L 319.6 30.95
Q 320.7 31.25 321 31.85 321.15 32 321 32.75 320.85 32.9 320.85 33.05 319.6 37.7 316.35 38.4 315.9 38.55 315.1 38.55
L 297.6 38.55
Q 296.3 38.4 296.45 37.3 299.6 14.25 324.25 8.25 325.55 8.1 325.8 8.65 Z"/>
</g>
</g>
</g>
</g>
</svg>
