
<svg xmlns="http://www.w3.org/2000/svg" version="1.1" xmlns:xlink="http://www.w3.org/1999/xlink" preserveAspectRatio="none" x="0px" y="0px" width="400px" height="88px" viewBox="0 0 400 88">
<defs>
<g id="Layer0_0_MEMBER_0_FILL">
<path fill="#347CF8" stroke="none" d="
M 351.2 10.8
Q 342.4 2 330 2 317.6 2 308.8 10.8 300 19.6 300 32 300 44.4 308.8 53.2 317.6 62 330 62 342.4 62 351.2 53.2 360 44.4 360 32 360 19.6 351.2 10.8
M 349.15 22.4
Q 350.5 22.55 350.2 23.7 347.15 47.1 321.85 53.5 320.7 53.5 320.25 53.05 320.25 52.85 320.15 52.85 319.85 52.15 320.15 51.9 320.4 51.4 321.1 51.15 336.3 44.65 339.5 30.05
L 326.65 30.05
Q 325.6 30.05 325.2 29.35 325.05 29.35 325.2 28.45 325.2 28.3 325.2 28.05 326.65 23.55 329.8 22.55 330.5 22.4 331.1 22.4
L 349.15 22.4
M 339.05 10.1
Q 339.05 10.4 339.2 10.4 339.35 10.95 339.2 11.3 338.8 12 338.2 12.15 322.9 18.65 319.85 32.95
L 332.7 32.95
Q 333.85 33.25 334.15 33.85 334.3 34 334.15 34.8 334 34.95 334 35.1 332.7 39.85 329.4 40.6 328.9 40.75 328.1 40.75
L 310.15 40.75
Q 308.85 40.6 309 39.45 312.2 15.85 337.5 9.7 338.8 9.55 339.05 10.1 Z"/>
</g>

<g id="Layer0_0_MEMBER_1_FILL">
<path fill="#347CF8" stroke="none" d="
M 383.05 45.55
Q 381.9 46.5 381.9 47.9 381.9 49.45 383.05 50.3 383.9 51.4 385.4 51.4 386.8 51.4 387.8 50.3 388.8 49.45 388.8 47.9 388.8 46.5 387.8 45.55 386.8 44.4 385.4 44.4 383.9 44.4 383.05 45.55
M 391.3 5.9
Q 392.3 4.9 392.3 3.35 392.3 2.1 391.3 1.1 390.2 0 388.8 0 387.4 0 386.4 1.1
L 372.7 14.85
Q 371.85 15.7 371.85 17.1
L 371.85 34.2 368.2 34.2
Q 366.8 34.2 365.95 35.3 364.85 36.15 364.85 37.7 364.85 39.1 365.95 40.05 366.8 41.05 368.2 41.05
L 371.85 41.05 371.85 58.15
Q 371.85 59.55 372.7 60.65 373.8 61.5 375.2 61.5 376.6 61.5 377.6 60.65 378.55 59.55 378.55 58.15
L 378.55 41.05 392.3 41.05 392.3 58.15
Q 392.3 59.55 393.25 60.65 394.25 61.5 395.65 61.5 397.05 61.5 398 60.65 399 59.55 399 58.15
L 399 30.95
Q 399.4 22.7 395.1 18.35 391.3 14.15 383.3 13.75
L 391.3 5.9
M 378.55 20.6
L 381.9 20.6
Q 382.2 20.6 382.35 20.6 387.65 20.6 390.2 23.1 392.4 25.8 392.3 30.7
L 392.3 34.2 378.55 34.2 378.55 20.6
M 381.9 27.45
Q 381.9 28.85 383.05 29.85 383.9 30.8 385.4 30.8 386.8 30.8 387.8 29.85 388.8 28.85 388.8 27.45 388.8 26.05 387.8 24.95 386.8 24.1 385.4 24.1 383.9 24.1 383.05 24.95 381.9 26.05 381.9 27.45
M 412.7 24.1
L 405.85 24.1
Q 404.45 24.1 403.5 24.95 402.5 26.05 402.5 27.45
L 402.5 58.15
Q 402.5 59.55 403.5 60.65 404.45 61.5 405.85 61.5 407.25 61.5 408.4 60.65 409.2 59.55 409.2 58.15
L 409.2 30.8 412.7 30.8
Q 413 30.8 413.15 30.8 418.3 30.95 421 33.35 423.1 36 422.95 40.9
L 422.95 51.4
Q 422.95 59.4 430.1 61.05 431.35 61.5 433.15 61.5 434.4 61.65 435.55 60.65 436.5 59.65 436.65 58.25 436.65 56.85 435.7 55.9 434.85 54.75 433.45 54.75 432.45 54.75 431.75 54.5 429.65 53.8 429.65 51.4
L 429.65 41.2
Q 430.2 32.8 425.9 28.6 421.7 24.25 413.3 24.1
L 413.15 24.1
Q 413 24.1 412.7 24.1
M 418.45 9.25
Q 419.6 8.4 419.6 7 419.6 5.45 418.45 4.45 417.6 3.35 416.2 3.35 414.7 3.35 413.7 4.45 412.7 5.45 412.7 7 412.7 8.4 413.7 9.25 414.7 10.4 416.2 10.4 417.6 10.4 418.45 9.25
M 426.3 20.6
Q 427.7 20.6 428.8 19.6 429.65 18.65 429.65 17.1 429.65 15.7 428.8 14.85 427.7 13.75 426.3 13.75
L 405.85 13.75
Q 404.45 13.75 403.5 14.85 402.5 15.7 402.5 17.1 402.5 18.65 403.5 19.6 404.45 20.6 405.85 20.6
L 426.3 20.6
M 445.9 9.25
Q 446.75 8.4 446.75 7 446.75 5.45 445.9 4.45 444.8 3.35 443.4 3.35 442 3.35 441.15 4.45 440 5.45 440 7 440 8.4 441.15 9.25 442 10.4 443.4 10.4 444.8 10.4 445.9 9.25
M 501.5 61.5
Q 502.9 61.5 504 60.65 504.85 59.55 504.85 58.15 504.85 56.75 504 55.75 502.9 54.75 501.5 54.75
L 457.1 54.75
Q 456.95 54.75 456.55 54.75 455.4 54.75 454.3 54.65 450.95 54.05 449 52.1 446.6 49.6 446.75 44.7
L 446.75 24.1
Q 446.75 15.3 438.5 13.9 437.65 13.75 436.8 13.75 435.4 13.75 434.3 14.7 433.3 15.55 433.3 16.95 433.15 18.35 434.15 19.5 435.1 20.45 436.5 20.6 436.95 20.6 437.35 20.6 440.15 21.15 440 24.1
L 440 44.25
Q 439.75 52.8 443.95 56.85 447.6 60.8 454.3 61.35 455.4 61.5 456.55 61.5 456.95 61.5 457.1 61.5
L 501.5 61.5
M 501.05 8.7
Q 501.6 7.6 501.5 6.3 501.2 5.15 500.2 4.3 499.4 3.35 498.1 3.35
L 457.1 3.35
Q 455.7 3.35 454.6 4.45 454.45 4.6 454.3 4.75 453.75 5.75 453.75 7 453.75 8 454.3 9 454.45 9.1 454.6 9.25 455.7 10.4 457.1 10.4
L 491.4 10.4
Q 490.55 11.2 489.6 12.2 485.25 16.7 479.1 17.1 478.5 17.1 478.1 17.25 477.7 17.1 477.25 17.1 471.8 17.1 467.6 14 466.6 13.3 465.2 13.45 463.8 13.75 462.85 14.85 462.15 15.85 462.3 17.4 462.55 18.8 463.7 19.6 464.4 20.2 465.2 20.6
L 457.1 20.6
Q 455.7 20.6 454.6 21.6 454.45 21.7 454.3 21.85 453.75 22.85 453.75 24.1
L 453.75 47.9
Q 453.75 49.05 454.3 50 454.45 50.15 454.6 50.3 455.7 51.4 457.1 51.4 458.5 51.4 459.5 50.3 460.45 49.45 460.45 47.9
L 460.45 27.45 474.2 27.45 474.2 30.8 467.3 30.8
Q 465.9 30.8 464.95 31.8 463.95 32.8 463.95 34.2 463.95 35.75 464.95 36.7 465.9 37.7 467.3 37.7
L 474.2 37.7 474.2 41.05 467.3 41.05
Q 465.9 41.05 464.95 42.05 463.95 43.15 463.95 44.4 463.95 45.8 464.95 46.95 465.9 47.9 467.3 47.9
L 474.2 47.9
Q 474.2 49.45 475.15 50.3 476.15 51.4 477.55 51.4 479.1 51.4 479.9 50.3 481.05 49.45 481.05 47.9
L 487.75 47.9
Q 489.15 47.9 490.3 46.95 491.1 45.8 491.1 44.4 491.1 43.15 490.3 42.05 489.15 41.05 487.75 41.05
L 481.05 41.05 481.05 37.7 487.75 37.7
Q 489.15 37.7 490.3 36.7 491.1 35.75 491.1 34.2 491.1 32.8 490.3 31.8 489.15 30.8 487.75 30.8
L 481.05 30.8 481.05 27.45 494.75 27.45 494.75 47.9
Q 494.75 49.45 495.6 50.3 496.7 51.4 498.1 51.4 499.5 51.4 500.5 50.3 501.5 49.45 501.5 47.9
L 501.5 24.1
Q 501.5 22.7 500.5 21.6 499.5 20.6 498.1 20.6
L 490.15 20.45
Q 492.4 19.05 494.6 16.95 498.25 13.3 501.05 8.7
M 535.65 41.05
Q 534.25 41.05 533.1 42.05 532.3 43.15 532.3 44.4 532.3 45.8 533.1 46.95 534.25 47.9 535.65 47.9 537.05 47.9 538 46.95 539 45.8 539 44.4 539 43.15 538 42.05 537.05 41.05 535.65 41.05
M 538 14.7
Q 537.05 13.75 535.65 13.75
L 511.85 13.75
Q 510.3 13.75 509.3 14.85 508.2 15.7 508.2 17.1 508.2 18.65 509.3 19.6 510.3 20.6 511.85 20.6
L 528.1 20.6 523.05 26.5
Q 522.9 26.6 522.6 26.75
L 509.2 42.3
Q 508.2 43.3 508.35 44.85 508.35 46.25 509.45 47.05 510.6 48.05 512 47.9 513.4 47.9 514.2 46.8
L 521.9 37.95 521.9 58.15
Q 521.9 59.55 523.05 60.65 523.9 61.5 525.4 61.5 526.8 61.5 527.8 60.65 528.8 59.55 528.8 58.15
L 528.8 30.1 538.15 19.5
Q 539.15 18.35 539 16.95 539 15.55 538 14.7
M 528.8 7
Q 528.8 5.45 527.8 4.45 526.8 3.35 525.4 3.35 523.9 3.35 523.05 4.45 521.9 5.45 521.9 7 521.9 8.4 523.05 9.25 523.9 10.4 525.4 10.4 526.8 10.4 527.8 9.25 528.8 8.4 528.8 7
M 569.65 34.2
Q 571.2 34.2 572.2 33.2 573.3 32.25 573.3 30.8 573.3 29.4 572.2 28.45 571.2 27.45 569.65 27.45
L 559.6 27.45 559.6 7
Q 559.6 5.45 558.45 4.45 557.6 3.35 556.2 3.35 554.7 3.35 553.7 4.45 552.7 5.45 552.7 7
L 552.7 27.45 542.5 27.45
Q 540.95 27.45 540.1 28.45 539 29.4 539 30.8 539 32.25 540.1 33.2 540.95 34.2 542.5 34.2
L 552.7 34.2 552.7 54.75 535.65 54.75
Q 534.25 54.75 533.25 55.75 532.3 56.75 532.3 58.15 532.3 59.55 533.25 60.65 534.25 61.5 535.65 61.5
L 576.65 61.5
Q 578.05 61.5 579.05 60.65 580 59.55 580 58.15 580 56.75 579.05 55.75 578.05 54.75 576.65 54.75
L 559.6 54.75 559.6 34.2 569.65 34.2 Z"/>
</g>
</defs>

<g transform="matrix( 1.4285736083984375, 0, 0, 1.42822265625, -428.55,0) ">
<use xlink:href="#Layer0_0_MEMBER_0_FILL"/>
</g>

<g transform="matrix( 1.4285736083984375, 0, 0, 1.42822265625, -428.55,0) ">
<use xlink:href="#Layer0_0_MEMBER_1_FILL"/>
</g>
</svg>
