
<svg xmlns="http://www.w3.org/2000/svg" version="1.1" xmlns:xlink="http://www.w3.org/1999/xlink" preserveAspectRatio="none" x="0px" y="0px" width="451px" height="50px" viewBox="0 0 451 50">
<defs>
<g id="Layer0_0_FILL">
<path fill="#347CF8" stroke="none" d="
M 351.2 10.8
Q 342.4 2 330 2 317.6 2 308.8 10.8 300 19.6 300 32 300 44.4 308.8 53.2 317.6 62 330 62 342.4 62 351.2 53.2 360 44.4 360 32 360 19.6 351.2 10.8
M 349.15 22.4
Q 350.5 22.55 350.2 23.7 347.15 47.1 321.85 53.5 320.7 53.5 320.25 53.05 320.25 52.85 320.15 52.85 319.85 52.15 320.15 51.9 320.4 51.4 321.1 51.15 336.3 44.65 339.5 30.05
L 326.65 30.05
Q 325.6 30.05 325.2 29.35 325.05 29.35 325.2 28.45 325.2 28.3 325.2 28.05 326.65 23.55 329.8 22.55 330.5 22.4 331.1 22.4
L 349.15 22.4
M 339.05 10.1
Q 339.05 10.4 339.2 10.4 339.35 10.95 339.2 11.3 338.8 12 338.2 12.15 322.9 18.65 319.85 32.95
L 332.7 32.95
Q 333.85 33.25 334.15 33.85 334.3 34 334.15 34.8 334 34.95 334 35.1 332.7 39.85 329.4 40.6 328.9 40.75 328.1 40.75
L 310.15 40.75
Q 308.85 40.6 309 39.45 312.2 15.85 337.5 9.7 338.8 9.55 339.05 10.1 Z"/>
</g>

<g id="Layer0_1_FILL">
<path fill="#347CF8" stroke="none" d="
M 383.05 45.55
Q 381.9 46.5 381.9 47.9 381.9 49.45 383.05 50.3 383.9 51.4 385.4 51.4 386.8 51.4 387.8 50.3 388.8 49.45 388.8 47.9 388.8 46.5 387.8 45.55 386.8 44.4 385.4 44.4 383.9 44.4 383.05 45.55
M 391.3 5.9
Q 392.3 4.9 392.3 3.35 392.3 2.1 391.3 1.1 390.2 0 388.8 0 387.4 0 386.4 1.1
L 372.7 14.85
Q 371.85 15.7 371.85 17.1
L 371.85 34.2 368.2 34.2
Q 366.8 34.2 365.95 35.3 364.85 36.15 364.85 37.7 364.85 39.1 365.95 40.05 366.8 41.05 368.2 41.05
L 371.85 41.05 371.85 58.15
Q 371.85 59.55 372.7 60.65 373.8 61.5 375.2 61.5 376.6 61.5 377.6 60.65 378.55 59.55 378.55 58.15
L 378.55 41.05 392.3 41.05 392.3 58.15
Q 392.3 59.55 393.25 60.65 394.25 61.5 395.65 61.5 397.05 61.5 398 60.65 399 59.55 399 58.15
L 399 30.95
Q 399.4 22.7 395.1 18.35 391.3 14.15 383.3 13.75
L 391.3 5.9
M 378.55 20.6
L 381.9 20.6
Q 382.2 20.6 382.35 20.6 387.65 20.6 390.2 23.1 392.4 25.8 392.3 30.7
L 392.3 34.2 378.55 34.2 378.55 20.6
M 381.9 27.45
Q 381.9 28.85 383.05 29.85 383.9 30.8 385.4 30.8 386.8 30.8 387.8 29.85 388.8 28.85 388.8 27.45 388.8 26.05 387.8 24.95 386.8 24.1 385.4 24.1 383.9 24.1 383.05 24.95 381.9 26.05 381.9 27.45
M 412.7 24.1
L 405.85 24.1
Q 404.45 24.1 403.5 24.95 402.5 26.05 402.5 27.45
L 402.5 58.15
Q 402.5 59.55 403.5 60.65 404.45 61.5 405.85 61.5 407.25 61.5 408.4 60.65 409.2 59.55 409.2 58.15
L 409.2 30.8 412.7 30.8
Q 413 30.8 413.15 30.8 418.3 30.95 421 33.35 423.1 36 422.95 40.9
L 422.95 51.4
Q 422.95 59.4 430.1 61.05 431.35 61.5 433.15 61.5 434.4 61.65 435.55 60.65 436.5 59.65 436.65 58.25 436.65 56.85 435.7 55.9 434.85 54.75 433.45 54.75 432.45 54.75 431.75 54.5 429.65 53.8 429.65 51.4
L 429.65 41.2
Q 430.2 32.8 425.9 28.6 421.7 24.25 413.3 24.1
L 413.15 24.1
Q 413 24.1 412.7 24.1
M 418.45 9.25
Q 419.6 8.4 419.6 7 419.6 5.45 418.45 4.45 417.6 3.35 416.2 3.35 414.7 3.35 413.7 4.45 412.7 5.45 412.7 7 412.7 8.4 413.7 9.25 414.7 10.4 416.2 10.4 417.6 10.4 418.45 9.25
M 426.3 20.6
Q 427.7 20.6 428.8 19.6 429.65 18.65 429.65 17.1 429.65 15.7 428.8 14.85 427.7 13.75 426.3 13.75
L 405.85 13.75
Q 404.45 13.75 403.5 14.85 402.5 15.7 402.5 17.1 402.5 18.65 403.5 19.6 404.45 20.6 405.85 20.6
L 426.3 20.6
M 445.9 9.25
Q 446.75 8.4 446.75 7 446.75 5.45 445.9 4.45 444.8 3.35 443.4 3.35 442 3.35 441.15 4.45 440 5.45 440 7 440 8.4 441.15 9.25 442 10.4 443.4 10.4 444.8 10.4 445.9 9.25
M 501.5 61.5
Q 502.9 61.5 504 60.65 504.85 59.55 504.85 58.15 504.85 56.75 504 55.75 502.9 54.75 501.5 54.75
L 457.1 54.75
Q 456.95 54.75 456.55 54.75 455.4 54.75 454.3 54.65 450.95 54.05 449 52.1 446.6 49.6 446.75 44.7
L 446.75 24.1
Q 446.75 15.3 438.5 13.9 437.65 13.75 436.8 13.75 435.4 13.75 434.3 14.7 433.3 15.55 433.3 16.95 433.15 18.35 434.15 19.5 435.1 20.45 436.5 20.6 436.95 20.6 437.35 20.6 440.15 21.15 440 24.1
L 440 44.25
Q 439.75 52.8 443.95 56.85 447.6 60.8 454.3 61.35 455.4 61.5 456.55 61.5 456.95 61.5 457.1 61.5
L 501.5 61.5
M 501.05 8.7
Q 501.6 7.6 501.5 6.3 501.2 5.15 500.2 4.3 499.4 3.35 498.1 3.35
L 457.1 3.35
Q 455.7 3.35 454.6 4.45 454.45 4.6 454.3 4.75 453.75 5.75 453.75 7 453.75 8 454.3 9 454.45 9.1 454.6 9.25 455.7 10.4 457.1 10.4
L 491.4 10.4
Q 490.55 11.2 489.6 12.2 485.25 16.7 479.1 17.1 478.5 17.1 478.1 17.25 477.7 17.1 477.25 17.1 471.8 17.1 467.6 14 466.6 13.3 465.2 13.45 463.8 13.75 462.85 14.85 462.15 15.85 462.3 17.4 462.55 18.8 463.7 19.6 464.4 20.2 465.2 20.6
L 457.1 20.6
Q 455.7 20.6 454.6 21.6 454.45 21.7 454.3 21.85 453.75 22.85 453.75 24.1
L 453.75 47.9
Q 453.75 49.05 454.3 50 454.45 50.15 454.6 50.3 455.7 51.4 457.1 51.4 458.5 51.4 459.5 50.3 460.45 49.45 460.45 47.9
L 460.45 27.45 474.2 27.45 474.2 30.8 467.3 30.8
Q 465.9 30.8 464.95 31.8 463.95 32.8 463.95 34.2 463.95 35.75 464.95 36.7 465.9 37.7 467.3 37.7
L 474.2 37.7 474.2 41.05 467.3 41.05
Q 465.9 41.05 464.95 42.05 463.95 43.15 463.95 44.4 463.95 45.8 464.95 46.95 465.9 47.9 467.3 47.9
L 474.2 47.9
Q 474.2 49.45 475.15 50.3 476.15 51.4 477.55 51.4 479.1 51.4 479.9 50.3 481.05 49.45 481.05 47.9
L 487.75 47.9
Q 489.15 47.9 490.3 46.95 491.1 45.8 491.1 44.4 491.1 43.15 490.3 42.05 489.15 41.05 487.75 41.05
L 481.05 41.05 481.05 37.7 487.75 37.7
Q 489.15 37.7 490.3 36.7 491.1 35.75 491.1 34.2 491.1 32.8 490.3 31.8 489.15 30.8 487.75 30.8
L 481.05 30.8 481.05 27.45 494.75 27.45 494.75 47.9
Q 494.75 49.45 495.6 50.3 496.7 51.4 498.1 51.4 499.5 51.4 500.5 50.3 501.5 49.45 501.5 47.9
L 501.5 24.1
Q 501.5 22.7 500.5 21.6 499.5 20.6 498.1 20.6
L 490.15 20.45
Q 492.4 19.05 494.6 16.95 498.25 13.3 501.05 8.7
M 535.65 41.05
Q 534.25 41.05 533.1 42.05 532.3 43.15 532.3 44.4 532.3 45.8 533.1 46.95 534.25 47.9 535.65 47.9 537.05 47.9 538 46.95 539 45.8 539 44.4 539 43.15 538 42.05 537.05 41.05 535.65 41.05
M 538 14.7
Q 537.05 13.75 535.65 13.75
L 511.85 13.75
Q 510.3 13.75 509.3 14.85 508.2 15.7 508.2 17.1 508.2 18.65 509.3 19.6 510.3 20.6 511.85 20.6
L 528.1 20.6 523.05 26.5
Q 522.9 26.6 522.6 26.75
L 509.2 42.3
Q 508.2 43.3 508.35 44.85 508.35 46.25 509.45 47.05 510.6 48.05 512 47.9 513.4 47.9 514.2 46.8
L 521.9 37.95 521.9 58.15
Q 521.9 59.55 523.05 60.65 523.9 61.5 525.4 61.5 526.8 61.5 527.8 60.65 528.8 59.55 528.8 58.15
L 528.8 30.1 538.15 19.5
Q 539.15 18.35 539 16.95 539 15.55 538 14.7
M 528.8 7
Q 528.8 5.45 527.8 4.45 526.8 3.35 525.4 3.35 523.9 3.35 523.05 4.45 521.9 5.45 521.9 7 521.9 8.4 523.05 9.25 523.9 10.4 525.4 10.4 526.8 10.4 527.8 9.25 528.8 8.4 528.8 7
M 569.65 34.2
Q 571.2 34.2 572.2 33.2 573.3 32.25 573.3 30.8 573.3 29.4 572.2 28.45 571.2 27.45 569.65 27.45
L 559.6 27.45 559.6 7
Q 559.6 5.45 558.45 4.45 557.6 3.35 556.2 3.35 554.7 3.35 553.7 4.45 552.7 5.45 552.7 7
L 552.7 27.45 542.5 27.45
Q 540.95 27.45 540.1 28.45 539 29.4 539 30.8 539 32.25 540.1 33.2 540.95 34.2 542.5 34.2
L 552.7 34.2 552.7 54.75 535.65 54.75
Q 534.25 54.75 533.25 55.75 532.3 56.75 532.3 58.15 532.3 59.55 533.25 60.65 534.25 61.5 535.65 61.5
L 576.65 61.5
Q 578.05 61.5 579.05 60.65 580 59.55 580 58.15 580 56.75 579.05 55.75 578.05 54.75 576.65 54.75
L 559.6 54.75 559.6 34.2 569.65 34.2 Z"/>
</g>

<g id="Layer0_2_FILL">
<path fill="#347CF8" stroke="none" d="
M 179.35 231.45
L 167.55 238.1
Q 169.95 241.95 172.5 246.3 175.15 250.65 177.4 254.75 179.7 258.9 181.05 262.15
L 193.75 254.4
Q 192.2 251.25 189.65 247.3 187.2 243.3 184.45 239.2 181.7 235.05 179.35 231.45
M 312.7 194.75
L 272.45 194.75 272.45 229.1
Q 272.45 236.4 271.95 244.7 271.5 253 269.65 261.3 267.9 269.65 264.05 276.9 264.1 275.9 264.2 274.75 264.3 273.7 264.3 272.45
L 264.3 194.75 226.7 194.75 226.7 232.35
Q 226.75 240.1 226.25 248.9 225.7 257.7 223.7 266.25 221.65 274.8 217.45 281.75 219.25 282.5 221.55 283.8 223.8 285.15 225.95 286.6 228.15 288 229.5 289.15 233.85 281.95 236.15 272.9 238.55 263.75 239.4 254.1
L 250.35 254.1 250.35 272.35
Q 250.35 273.3 250 273.75 249.6 274.1 248.7 274.1 247.65 274.1 245.35 274.1 243.1 274.05 240.75 273.9 241.65 275.75 242.5 278.05 243.3 280.4 243.95 282.85 244.55 285.2 244.75 287.15 249.65 287.2 253.25 286.7 256.95 286.2 259.6 284.55 260.35 284.1 261.05 283.5 261.65 282.95 262.05 282.3 263.95 283.2 266.1 284.4 268.3 285.65 270.25 286.95 272.25 288.3 273.45 289.4 278.5 282.15 281.3 273.05 284.05 263.85 285.25 254.1
L 298.25 254.1 298.25 271.6
Q 298.25 272.65 297.75 273.1 297.35 273.6 296.25 273.6 295.5 273.65 293.9 273.65 292.35 273.65 290.35 273.6 288.35 273.55 286.5 273.35 287.4 275.35 288.3 277.95 289.2 280.55 289.8 283.25 290.45 285.95 290.75 288.05 296.3 288.1 300.5 287.55 304.65 286.95 307.65 285.25 310.55 283.45 311.7 280.25 312.75 277 312.7 271.9
L 312.7 194.75
M 298.25 208.25
L 298.25 217.9 286.7 217.9 286.7 208.25 298.25 208.25
M 286.35 240.8
Q 286.55 238.25 286.6 235.8 286.7 233.3 286.7 231
L 298.25 231 298.25 240.8 286.35 240.8
M 250.35 231
L 250.35 240.8 240.3 240.8
Q 240.35 238.55 240.4 236.45 240.4 234.3 240.4 232.25
L 240.4 231 250.35 231
M 250.35 208.25
L 250.35 217.9 240.4 217.9 240.4 208.25 250.35 208.25
M 187.25 194.5
L 172.85 191.1
Q 170.8 199.3 167.6 207.1 164.4 215 160.55 221.4
L 160.55 207.65 145.25 207.65
Q 146.55 204.4 147.85 200.65 149.1 196.9 150.5 193.1
L 133.95 190.8
Q 133.75 194.7 133.1 199.2 132.5 203.65 131.7 207.65
L 120 207.65 120 285.65 133.5 285.65 133.5 278.35 160.55 278.35 160.55 229.25
Q 162.9 230.8 165.2 232.55 167.55 234.35 169 235.55 171.3 232.4 173.45 228.55 175.7 224.65 177.8 220.2
L 197.4 220.2
Q 196.95 237.2 196.4 248.2 195.8 259.35 194.75 265.2 193.8 271.15 192.35 272.65 191.35 273.75 190.3 274.1 189.35 274.55 187.8 274.55 185.6 274.55 181.4 274.45 177.3 274.4 172.2 273.9 173.55 276 174.65 278.65 175.7 281.2 176.4 283.8 177.05 286.35 177.2 288.4 181.85 288.65 186.3 288.6 190.7 288.5 193.85 288.05 197.25 287.5 199.9 286.1 202.45 284.75 204.8 281.45 206.45 279.4 207.5 274.8 208.6 270.25 209.3 262.4 210 254.5 210.45 242.4 211 230.25 211.45 213.1 211.5 212.15 211.5 210.65 211.55 209.15 211.55 207.9 211.55 206.65 211.55 206.6
L 183.35 206.6
Q 184.45 203.6 185.4 200.5 186.4 197.5 187.25 194.5
M 133.5 247.45
L 147.05 247.45 147.05 265.25 133.5 265.25 133.5 247.45
M 147.05 234.55
L 133.5 234.55 133.5 220.65 147.05 220.65 147.05 234.55
M 505.15 273
Q 505.15 274.1 504.65 274.65 504.2 275.15 503 275.15 502.2 275.2 500.35 275.2 498.55 275.2 496.3 275.15 494.1 275.1 491.95 274.9 492.9 276.8 493.8 279.2 494.75 281.65 495.45 284.1 496.15 286.6 496.4 288.5 502.45 288.6 506.9 288.1 511.3 287.6 514.4 285.95 517.6 284.35 518.8 281.3 520.05 278.3 520 273.15
L 520 194 481.7 194 481.7 207.45 505.15 207.45 505.15 273
M 468.7 214.75
L 454.05 214.75 454.05 288.65 468.7 288.65 468.7 214.75
M 456.15 195.05
L 442.3 191.05
Q 440.4 198.35 437.65 205.4 434.9 212.5 431.5 218.75 428.2 225 424.45 229.8 425.65 231.9 427.15 235 428.55 238.1 429.8 241.2 431.05 244.3 431.55 246.2 432.65 244.8 433.7 243.4
L 433.7 288.75 448 288.75 448 217.5
Q 450.4 211.9 452.4 206.3 454.5 200.6 456.15 195.05
M 474.75 197.1
Q 472.2 193.65 470 190.65
L 458.6 197.3
Q 460.85 200.5 463.25 204.2 465.6 207.85 467.6 211.35 469.55 214.8 470.7 217.5
L 482.9 209.95
Q 481.5 207.25 479.35 203.85 477.2 200.5 474.75 197.1
M 350.55 190.8
Q 350.45 193.4 350.35 197.05 350.25 200.7 349.9 205.2
L 325.75 205.2 325.75 219.75 348.35 219.75
Q 347.05 228.9 344.05 238.65 341 248.4 335.5 257.55 330.05 266.7 321.35 274.05 325.25 276.3 328.55 279.1 331.9 281.9 334.25 284.9 342.15 277.35 347.6 268.3 353.1 259.35 356.5 249.65 359 254.3 361.95 258.4 364.85 262.55 368.2 266.15 363.3 269.4 357.8 271.85 352.3 274.35 346.1 275.95 347.6 277.55 349.2 279.75 350.8 281.95 352.2 284.35 353.6 286.7 354.6 288.65 361.7 286.3 368.05 283.2 374.35 280.15 379.95 276.15 386.1 280.3 393.45 283.3 400.8 286.3 409.6 288.35 410.65 286.2 412.25 283.65 413.95 281.05 415.75 278.65 417.6 276.15 419.25 274.55 411.3 273.1 404.45 270.85 397.65 268.65 391.9 265.5 397.65 259.1 401.95 250.85 406.25 242.6 408.95 232.4
L 398.6 228.05 395.95 228.7 362.35 228.7
Q 362.75 226.35 363.15 224.1 363.5 221.9 363.85 219.75
L 416.4 219.75 416.4 205.2 365.4 205.2
Q 365.75 200.9 365.95 197.25 366.1 193.65 366.2 190.8
L 350.55 190.8
M 368.4 243.15
L 388.7 243.15
Q 386.9 246.9 384.55 250.35 382.1 253.7 379.3 256.75 376.1 253.7 373.35 250.35 370.65 246.9 368.4 243.15 Z"/>
</g>

<g id="Layer0_3_FILL">
<path fill="#FF9900" stroke="none" d="
M 239.3 54.15
Q 238.5 53.2 237.05 53.2 235.65 53.2 234.75 54.15 233.85 55.1 233.85 56.5 233.85 57.15 234.05 57.7 234.3 58.2 235.25 59.5 236.1 60.75 236.1 62 236.1 63.55 234.65 65.85 233.15 68.2 229.25 71.95 229.3 60.55 226.65 53.2
L 217.7 55.6 217.7 56.55
Q 218.35 56.45 218.8 56.45 219.6 56.45 220.1 56.9 220.85 57.55 221.3 58.95 221.9 60.9 222.4 66.7 222.85 72.45 222.85 75.5 222.85 76.6 222.75 78.8
L 223.7 78.8
Q 230.4 73.15 234 69.5 235.95 67.55 237.55 65.1 239.1 62.7 239.8 60.9 240.45 59.1 240.45 57.3 240.45 55.5 239.3 54.15
M 245.85 56.2
Q 246.35 56.65 246.35 57.25 246.35 58.15 245.8 60
L 242.05 72.85
Q 241.6 74.35 241.6 75.35 241.6 76.85 242.65 77.85 243.7 78.8 245.45 78.8 250 78.8 254.05 71.75
L 253.15 71.25
Q 251.45 73.85 250.2 74.85 249.75 75.25 249.35 75.25 249.05 75.25 248.8 74.95 248.55 74.7 248.55 74.45 248.55 73.9 249 72.3
L 254.5 53.2 252.9 53.2 243.8 54.7 243.45 55.75
Q 244.05 55.75 244.45 55.75 245.35 55.75 245.85 56.2
M 280.45 55.15
Q 279.05 53.2 276.55 53.2 274.8 53.2 272.95 54.15 271.15 55 268.35 57.6
L 269.55 53.2 267.95 53.2 259.1 54.7 258.8 55.75
Q 260.3 55.75 260.7 55.9 261.15 56 261.35 56.35 261.55 56.65 261.55 57.1 261.55 58.15 260.85 60.7
L 254.3 83.2
Q 253.35 86.65 252.2 87.75 251.05 88.75 249.35 88.8
L 249.05 89.8 263.5 89.8 263.7 88.8
Q 261.55 88.45 260.95 88 260.35 87.45 260.35 86.6 260.35 85.25 261.15 82.6
L 262.5 77.8
Q 263.75 78.45 264.5 78.65 265.15 78.8 266.15 78.8 271.75 78.8 276.45 73.55 281.8 67.6 281.8 59.9 281.8 57.1 280.45 55.15
M 274 58.05
Q 274.7 59 274.7 61.05 274.7 63.6 274 66.45 273.35 69.3 272.25 71.5 271.1 73.7 269.9 75.15 268.7 76.6 267.9 77.05 267.1 77.5 266.25 77.5 265.35 77.5 264.7 77.05 264.1 76.6 263.3 75.3
L 267.55 60.2
Q 269.2 58.3 270.4 57.6 271.25 57.1 272.15 57.1 273.2 57.1 274 58.05
M 255.7 42.05
Q 254.5 40.9 252.85 40.9 251.2 40.9 250.1 42.05 248.95 43.2 248.95 44.85 248.95 46.45 250.1 47.6 251.25 48.75 252.85 48.75 254.5 48.75 255.65 47.6 256.8 46.45 256.8 44.85 256.8 43.2 255.7 42.05 Z"/>
</g>
</defs>

<g transform="matrix( 0.78057861328125, 0, 0, 0.833038330078125, -234.15,-1.65) ">
<use xlink:href="#Layer0_0_FILL"/>
</g>

<g transform="matrix( 0.7604217529296875, 0, 0, 0.812774658203125, -227.45,0) ">
<use xlink:href="#Layer0_1_FILL"/>
</g>

<g transform="matrix( 0.47369384765625, 0, 0, 0.5059814453125, 163.15,-96.45) ">
<use xlink:href="#Layer0_2_FILL"/>
</g>

<g transform="matrix( 0.574493408203125, 0, 0, 0.6134490966796875, 289.95,-25.1) ">
<use xlink:href="#Layer0_3_FILL"/>
</g>
</svg>
